REM DIRINDEX 1\2\4,1\2\5,1\2\6,1\3\7,1\3\8
REM DIRNAME folder01,folder02,folder03,folder04,folder05,folder06,folder07,folder08
TITLE ""
FILE "027_Lesson 23_Output_Stage.mp3" MP3
  TRACK 01 AUDIO
    TITLE "0:"
    INDEX 01 00:00:00
  TRACK 02 AUDIO
    TITLE "8:cjc128_3525"
    INDEX 01 00:00:07
  TRACK 03 AUDIO
    TITLE "0:"
    INDEX 01 00:03:10
  TRACK 04 AUDIO
    TITLE "8:cjc128_3526"
    INDEX 01 00:03:49
  TRACK 05 AUDIO
    TITLE "0:"
    INDEX 01 00:05:46
  TRACK 06 AUDIO
    TITLE "7:cjc128_3527"
    INDEX 01 00:06:41
  TRACK 07 AUDIO
    TITLE "0:"
    INDEX 01 00:09:38
  TRACK 08 AUDIO
    TITLE "8:cjc128_3528"
    INDEX 01 00:13:14
  TRACK 09 AUDIO
    TITLE "0:"
    INDEX 01 00:14:64
  TRACK 10 AUDIO
    TITLE "7:cjc128_3529"
    INDEX 01 00:15:64
  TRACK 11 AUDIO
    TITLE "0:"
    INDEX 01 00:19:69
  TRACK 12 AUDIO
    TITLE "8:cjc128_3530"
    INDEX 01 00:24:45
  TRACK 13 AUDIO
    TITLE "0:"
    INDEX 01 00:26:38
  TRACK 14 AUDIO
    TITLE "7:cjc128_3531"
    INDEX 01 00:27:26
  TRACK 15 AUDIO
    TITLE "0:"
    INDEX 01 00:29:52
  TRACK 16 AUDIO
    TITLE "8:cjc128_3532"
    INDEX 01 00:32:43
  TRACK 17 AUDIO
    TITLE "0:"
    INDEX 01 00:34:45
  TRACK 18 AUDIO
    TITLE "7:cjc128_3533"
    INDEX 01 00:35:39
  TRACK 19 AUDIO
    TITLE "0:"
    INDEX 01 00:38:55
  TRACK 20 AUDIO
    TITLE "8:cjc128_3534"
    INDEX 01 00:42:29
  TRACK 21 AUDIO
    TITLE "0:"
    INDEX 01 00:44:22
  TRACK 22 AUDIO
    TITLE "7:cjc128_3535"
    INDEX 01 00:45:22
  TRACK 23 AUDIO
    TITLE "0:"
    INDEX 01 00:47:62
  TRACK 24 AUDIO
    TITLE "8:cjc128_3536"
    INDEX 01 00:51:26
  TRACK 25 AUDIO
    TITLE "0:"
    INDEX 01 00:53:19
  TRACK 26 AUDIO
    TITLE "7:cjc128_3537"
    INDEX 01 00:54:21
  TRACK 27 AUDIO
    TITLE "0:"
    INDEX 01 00:57:19
  TRACK 28 AUDIO
    TITLE "8:cjc128_3538"
    INDEX 01 01:00:47
  TRACK 29 AUDIO
    TITLE "0:"
    INDEX 01 01:02:50
  TRACK 30 AUDIO
    TITLE "7:cjc128_3539"
    INDEX 01 01:03:37
  TRACK 31 AUDIO
    TITLE "0:"
    INDEX 01 01:06:67
  TRACK 32 AUDIO
    TITLE "8:cjc128_3540"
    INDEX 01 01:11:11
  TRACK 33 AUDIO
    TITLE "0:"
    INDEX 01 01:13:08
  TRACK 34 AUDIO
    TITLE "7:cjc128_3541"
    INDEX 01 01:13:71
  TRACK 35 AUDIO
    TITLE "0:"
    INDEX 01 01:15:74
  TRACK 36 AUDIO
    TITLE "8:cjc128_3542"
    INDEX 01 01:18:53
  TRACK 37 AUDIO
    TITLE "0:"
    INDEX 01 01:20:53
  TRACK 38 AUDIO
    TITLE "7:cjc128_3543"
    INDEX 01 01:21:45
  TRACK 39 AUDIO
    TITLE "0:"
    INDEX 01 01:24:14
  TRACK 40 AUDIO
    TITLE "8:cjc128_3544"
    INDEX 01 01:27:38
  TRACK 41 AUDIO
    TITLE "0:"
    INDEX 01 01:29:25
  TRACK 42 AUDIO
    TITLE "7:cjc128_3545"
    INDEX 01 01:30:20
  TRACK 43 AUDIO
    TITLE "0:"
    INDEX 01 01:33:25
  TRACK 44 AUDIO
    TITLE "8:cjc128_3546"
    INDEX 01 01:37:01
  TRACK 45 AUDIO
    TITLE "0:"
    INDEX 01 01:39:04
  TRACK 46 AUDIO
    TITLE "7:cjc128_3547"
    INDEX 01 01:39:64
  TRACK 47 AUDIO
    TITLE "0:"
    INDEX 01 01:43:25
  TRACK 48 AUDIO
    TITLE "8:cjc128_3548"
    INDEX 01 01:47:50
  TRACK 49 AUDIO
    TITLE "0:"
    INDEX 01 01:49:22
  TRACK 50 AUDIO
    TITLE "7:cjc128_3549"
    INDEX 01 01:50:21
  TRACK 51 AUDIO
    TITLE "0:"
    INDEX 01 01:54:23
  TRACK 52 AUDIO
    TITLE "8:cjc128_3550"
    INDEX 01 01:59:20
  TRACK 53 AUDIO
    TITLE "0:"
    INDEX 01 02:01:11
  TRACK 54 AUDIO
    TITLE "7:cjc128_3551"
    INDEX 01 02:02:05
  TRACK 55 AUDIO
    TITLE "0:"
    INDEX 01 02:05:58
  TRACK 56 AUDIO
    TITLE "8:cjc128_3552"
    INDEX 01 02:10:26
  TRACK 57 AUDIO
    TITLE "0:"
    INDEX 01 02:12:19
  TRACK 58 AUDIO
    TITLE "7:cjc128_3553"
    INDEX 01 02:13:14
  TRACK 59 AUDIO
    TITLE "0:"
    INDEX 01 02:16:46
  TRACK 60 AUDIO
    TITLE "8:cjc128_3554"
    INDEX 01 02:20:60
  TRACK 61 AUDIO
    TITLE "0:"
    INDEX 01 02:22:60
  TRACK 62 AUDIO
    TITLE "7:cjc128_3555"
    INDEX 01 02:23:58
  TRACK 63 AUDIO
    TITLE "0:"
    INDEX 01 02:26:29
  TRACK 64 AUDIO
    TITLE "8:cjc128_3556"
    INDEX 01 02:29:68
  TRACK 65 AUDIO
    TITLE "0:"
    INDEX 01 02:32:02
  TRACK 66 AUDIO
    TITLE "7:cjc128_3557"
    INDEX 01 02:32:74
  TRACK 67 AUDIO
    TITLE "0:"
    INDEX 01 02:36:29
  TRACK 68 AUDIO
    TITLE "8:cjc128_3558"
    INDEX 01 02:40:48
  TRACK 69 AUDIO
    TITLE "0:"
    INDEX 01 02:42:45
  TRACK 70 AUDIO
    TITLE "7:cjc128_3559"
    INDEX 01 02:43:41
  TRACK 71 AUDIO
    TITLE "0:"
    INDEX 01 02:46:43
  TRACK 72 AUDIO
    TITLE "8:cjc128_3560"
    INDEX 01 02:50:33
  TRACK 73 AUDIO
    TITLE "0:"
    INDEX 01 02:52:32
  TRACK 74 AUDIO
    TITLE "7:cjc128_3561"
    INDEX 01 02:53:20
  TRACK 75 AUDIO
    TITLE "0:"
    INDEX 01 02:56:71
  TRACK 76 AUDIO
    TITLE "8:cjc128_3562"
    INDEX 01 03:01:27
  TRACK 77 AUDIO
    TITLE "0:"
    INDEX 01 03:03:44
  TRACK 78 AUDIO
    TITLE "7:cjc128_3563"
    INDEX 01 03:04:31
  TRACK 79 AUDIO
    TITLE "0:"
    INDEX 01 03:07:08
